<?xml version="1.0" standalone="no"?>
<!DOCTYPE svg PUBLIC "-//W3C//DTD SVG 20010904//EN"
 "http://www.w3.org/TR/2001/REC-SVG-20010904/DTD/svg10.dtd">
<svg version="1.0" xmlns="http://www.w3.org/2000/svg"
 width="1248.000000pt" height="1248.000000pt" viewBox="0 0 1248.000000 1248.000000"
 preserveAspectRatio="xMidYMid meet">
<metadata>
Created by potrace 1.14, written by Peter Selinger 2001-2017
</metadata>
<g transform="translate(0.000000,1248.000000) scale(0.100000,-0.100000)"
fill="#000000" stroke="none">
<path d="M4925 10590 c-1028 -22 -1775 -57 -2465 -115 -509 -43 -1025 -116
-1180 -167 -387 -126 -716 -406 -904 -768 -70 -135 -110 -251 -146 -420 -204
-965 -284 -2740 -190 -4220 47 -742 154 -1473 260 -1775 75 -215 223 -440 394
-602 217 -206 465 -336 751 -394 978 -200 4248 -302 6965 -219 1227 38 2180
119 2651 225 508 113 939 502 1117 1006 70 197 169 814 221 1379 57 609 76
1041 76 1765 0 1018 -54 1780 -176 2485 -65 376 -113 556 -193 726 -220 464
-632 776 -1166 884 -439 88 -1509 158 -3080 201 -498 13 -2443 19 -2935 9z
m1675 -1908 c438 -40 720 -111 1015 -256 553 -272 950 -762 1114 -1376 70
-262 109 -646 97 -964 -21 -582 -162 -1012 -464 -1420 -89 -119 -274 -308
-387 -392 -311 -235 -752 -397 -1245 -458 -256 -32 -472 -36 -1775 -36 l-1305
0 0 2461 0 2460 1413 -4 c944 -3 1453 -8 1537 -15z"/>
<path d="M4900 6239 l0 -1631 718 5 c450 3 749 9 802 16 349 46 605 153 762
318 134 142 243 367 296 614 68 313 79 842 26 1197 -68 456 -282 777 -629 942
-289 137 -577 170 -1522 170 l-453 0 0 -1631z"/>
</g>
</svg>
