<svg width="1664" height="1664" version="1.0" viewBox="0 0 1248 1248" xmlns="http://www.w3.org/2000/svg"><path d="M492.5 189c-102.8 2.2-177.5 5.7-246.5 11.5-50.9 4.3-102.5 11.6-118 16.7-38.7 12.6-71.6 40.6-90.4 76.8-7 13.5-11 25.1-14.6 42C2.6 432.5-5.4 610 4 758c4.7 74.2 15.4 147.3 26 177.5 7.5 21.5 22.3 44 39.4 60.2 21.7 20.6 46.5 33.6 75.1 39.4 97.8 20 424.8 30.2 696.5 21.9 122.7-3.8 218-11.9 265.1-22.5 50.8-11.3 93.9-50.2 111.7-100.6 7-19.7 16.9-81.4 22.1-137.9 5.7-60.9 7.6-104.1 7.6-176.5 0-101.8-5.4-178-17.6-248.5-6.5-37.6-11.3-55.6-19.3-72.6-22-46.4-63.2-77.6-116.6-88.4-43.9-8.8-150.9-15.8-308-20.1-49.8-1.3-244.3-1.9-293.5-.9"/><path d="m364.65 378.05 141.3.4c94.4.3 145.3.8 153.7 1.5 43.8 4 72 11.1 101.5 25.6 55.3 27.2 95 76.2 111.4 137.6 7 26.2 10.9 64.6 9.7 96.4-2.1 58.2-16.2 101.2-46.4 142-8.9 11.9-27.4 30.799-38.7 39.199-31.1 23.5-75.2 39.7-124.5 45.8-25.6 3.2-47.2 3.6-177.5 3.6h-130.5v-246.1zm125 83.099v326.2l71.799-.5c45-.3 74.9-.9 80.2-1.6 34.9-4.6 60.5-15.3 76.2-31.8 13.4-14.2 24.3-36.7 29.6-61.4 6.8-31.3 7.9-84.2 2.6-119.7-6.8-45.6-28.2-77.7-62.9-94.2-28.9-13.7-57.7-17-152.2-17z" fill="#fff"/></svg>